{"asset":{"version":"2.0","generator":"Unity 2022.3.20f1 glTFast 6.0.1"},"nodes":[{"name":"HeadTop_End","translation":[7.06101844E-14,0.181316659,-2.98023224E-08],"rotation":[-0.074465245,-4.34864944E-08,-2.05032329E-08,0.9972236]},{"name":"LeftEye","translation":[0.03412299,0.08738277,0.0659482256],"rotation":[-0.0701607,-4.53162663E-08,-2.93913622E-08,0.9975357]},{"name":"RightEye","translation":[-0.0341228545,0.08732376,0.06595654],"rotation":[-0.0701606944,-4.53162663E-08,-2.93913622E-08,0.9975357]},{"name":"Head","children":[0,1,2],"translation":[-1.563194E-13,0.09079506,1.67638063E-08],"rotation":[-0.05336157,4.92072232E-08,1.23797292E-07,0.99857527]},{"name":"Neck","children":[3],"translation":[-5.745404E-14,0.1244414,-3.771857E-08],"rotation":[0.139646053,3.194483E-08,-1.085782E-07,0.990201533]},{"name":"LeftHandThumb4","translation":[-5.62518835E-07,0.0337795131,-6.146729E-08],"rotation":[-0.03271897,0.0297099948,0.04319831,0.998088539]},{"name":"LeftHandThumb3","children":[5],"translation":[2.98023224E-08,0.0311693642,1.48080289E-07],"rotation":[0.0651725158,0.00260488782,-0.0658886656,0.995692968]},{"name":"LeftHandThumb2","children":[6],"translation":[-2.19792128E-07,0.03407912,-3.49245965E-08],"rotation":[0.03535814,-0.018298611,-0.221038282,0.9744522]},{"name":"LeftHandThumb1","children":[7],"translation":[-0.0166044757,0.0142987892,0.0159331728],"rotation":[0.17928578,0.003090337,0.368181527,0.912299037]},{"name":"LeftHandIndex4","translation":[2.79396772E-08,0.0255887136,-4.47034836E-08],"rotation":[-0.06403238,0.04265812,-0.0306939241,0.996563137]},{"name":"LeftHandIndex3","children":[9],"translation":[7.82310963E-08,0.0283169039,9.685755E-08],"rotation":[0.133359984,-0.04654498,-0.0315146856,0.9894723]},{"name":"LeftHandIndex2","children":[10],"translation":[-8.183997E-08,0.03222035,-1.28522515E-07],"rotation":[0.175997645,0.0331817642,-0.02511273,0.9835107]},{"name":"LeftHandIndex1","children":[11],"translation":[-0.021300355,0.08553493,0.01461244],"rotation":[0.101827256,-0.0131346881,0.07580771,0.991822541]},{"name":"LeftHandMiddle4","translation":[8.195639E-08,0.0245852917,3.53902578E-08],"rotation":[-0.07933555,0.002267747,-0.0230239537,0.996579468]},{"name":"LeftHandMiddle3","children":[13],"translation":[1.253793E-07,0.03219456,-8.43429E-08],"rotation":[0.145755887,-0.007176528,0.0101905121,0.9892421]},{"name":"LeftHandMiddle2","children":[14],"translation":[-2.36555934E-07,0.0381939635,-2.4586916E-07],"rotation":[0.1507526,0.0229162872,0.0396505855,0.987510145]},{"name":"LeftHandMiddle1","children":[15],"translation":[-0.00484599732,0.0840625,0.0107325856],"rotation":[0.1042038,-0.000270371878,-0.02734079,0.9941801]},{"name":"LeftHandRing4","translation":[4.656613E-09,0.0212512054,1.62981451E-08],"rotation":[-0.0159833618,0.003182606,0.020556286,0.9996559]},{"name":"LeftHandRing3","children":[17],"translation":[-1.383014E-07,0.0283161514,1.95577741E-08],"rotation":[0.03109302,-0.0130547015,-0.0188177377,0.9992541]},{"name":"LeftHandRing2","children":[18],"translation":[-8.195639E-08,0.030379707,-4.09781933E-08],"rotation":[0.173395649,0.0194159,0.0338996574,0.984077156]},{"name":"LeftHandRing1","children":[19],"translation":[0.01677113,0.0865634,0.008758282],"rotation":[0.137931257,0.02342345,-0.08379519,0.986612737]},{"name":"LeftHandPinky4","translation":[6.33299351E-08,0.0133807659,8.800998E-08],"rotation":[-0.0394232981,0.0219431184,0.0104631744,0.9989269]},{"name":"LeftHandPinky3","children":[21],"translation":[3.7252903E-08,0.01765626,1.6647391E-08],"rotation":[0.100024045,-0.0346466675,-0.0123155,0.9943054]},{"name":"LeftHandPinky2","children":[22],"translation":[-2.98023224E-08,0.027637843,-2.32830644E-07],"rotation":[0.0855741,0.03390417,0.07126519,0.9932013]},{"name":"LeftHandPinky1","children":[23],"translation":[0.0325834528,0.0791478,0.005490618],"rotation":[0.196799278,0.0243268944,-0.192642823,0.961024]},{"name":"LeftHand","children":[8,12,16,20,24],"translation":[1.49011612E-07,0.2573764,2.29571015E-07],"rotation":[0.0159760639,-0.120417573,-0.0400593542,0.9917861]},{"name":"LeftForeArm","children":[25],"translation":[2.04890966E-08,0.268844277,-1.094304E-07],"rotation":[0.0153859043,-0.009234636,0.2376627,0.971182]},{"name":"LeftArm","children":[26],"translation":[3.7252903E-09,0.06534291,-5.96046448E-08],"rotation":[0.384801775,0.06913662,0.03828753,0.9196096]},{"name":"LeftShoulder","children":[27],"translation":[0.06222338,0.104911037,-0.01248668],"rotation":[0.481688023,0.492769271,-0.5889065,0.4223083]},{"name":"RightHandThumb4","translation":[8.7171793E-07,0.0337794647,-1.41561031E-07],"rotation":[-0.0327164754,-0.0297026262,-0.0432057865,0.998088539]},{"name":"RightHandThumb3","children":[29],"translation":[1.41561031E-07,0.0311693978,9.313226E-09],"rotation":[0.06517758,-0.00259900326,0.0658928752,0.9956924]},{"name":"RightHandThumb2","children":[30],"translation":[-1.86264515E-08,0.0340790674,5.98374754E-08],"rotation":[0.0353574976,0.0182914268,0.221041,0.9744517]},{"name":"RightHandThumb1","children":[31],"translation":[0.0166047234,0.0142992251,0.0159329884],"rotation":[0.179284111,-0.003092512,-0.368181646,0.9122993]},{"name":"RightHandIndex4","translation":[-3.0733645E-08,0.0255883262,1.67638063E-07],"rotation":[-0.06403391,-0.0426589549,0.0306887627,0.996563137]},{"name":"RightHandIndex3","children":[33],"translation":[4.47034836E-08,0.02831631,-5.16884029E-08],"rotation":[0.13336888,0.04655817,0.0315109529,0.989470661]},{"name":"RightHandIndex2","children":[34],"translation":[-6.83357939E-08,0.0322210342,2.04890966E-08],"rotation":[0.175993815,-0.0331895165,0.0251137968,0.9835111]},{"name":"RightHandIndex1","children":[35],"translation":[0.021300381,0.08553513,0.0146124065],"rotation":[0.101826079,0.0131318942,-0.07580614,0.991822839]},{"name":"RightHandMiddle4","translation":[9.406358E-08,0.0245849043,9.126961E-08],"rotation":[-0.07933675,-0.00226921844,0.02302485,0.996579349]},{"name":"RightHandMiddle3","children":[37],"translation":[-2.30153091E-07,0.032194037,-4.231697E-08],"rotation":[0.145757079,0.00717901345,-0.0101922369,0.989241838]},{"name":"RightHandMiddle2","children":[38],"translation":[1.9185245E-07,0.0381941535,-1.24797225E-07],"rotation":[0.150749147,-0.0229205973,-0.03965223,0.987510562]},{"name":"RightHandMiddle1","children":[39],"translation":[0.004850704,0.08382325,0.0106226429],"rotation":[0.1042029,0.000268924574,0.0273420326,0.994180143]},{"name":"RightHandRing4","translation":[1.11758709E-07,0.0212509334,-1.58324838E-08],"rotation":[-0.0159726087,-0.00316860015,-0.0205601435,0.999656]},{"name":"RightHandRing3","children":[41],"translation":[-1.648441E-07,0.028316889,-6.635673E-08],"rotation":[0.031085182,0.0130436039,0.0188128538,0.9992546]},{"name":"RightHandRing2","children":[42],"translation":[6.891787E-08,0.0303795319,5.122274E-08],"rotation":[0.173397765,-0.0194129236,-0.03389663,0.9840769]},{"name":"RightHandRing1","children":[43],"translation":[-0.01671351,0.08634714,0.008879134],"rotation":[0.137929291,-0.0234252512,0.08379629,0.9866129]},{"name":"RightHandPinky4","translation":[5.58793545E-08,0.013381375,-1.90921128E-08],"rotation":[-0.0394312665,-0.0219524857,-0.0104633924,0.998926342]},{"name":"RightHandPinky3","children":[45],"translation":[-4.09781933E-08,0.0176555123,-8.12578946E-08],"rotation":[0.100032687,0.03465657,0.0123098511,0.99430424]},{"name":"RightHandPinky2","children":[46],"translation":[-3.7252903E-09,0.0276385285,9.033829E-08],"rotation":[0.08557177,-0.0339082666,-0.0712609738,0.9932017]},{"name":"RightHandPinky1","children":[47],"translation":[-0.0326049775,0.0789796337,0.00553363934],"rotation":[0.196796834,-0.0243283641,0.192644119,0.961024165]},{"name":"RightHand","children":[32,36,40,44,48],"translation":[9.685755E-08,0.2573753,-1.71596184E-07],"rotation":[0.015976971,0.120419584,0.04005821,0.9917859]},{"name":"RightForeArm","children":[49],"translation":[6.426126E-08,0.268844217,1.13504939E-08],"rotation":[0.015385095,0.009234577,-0.237662673,0.971182]},{"name":"RightArm","children":[50],"translation":[-1.86264515E-08,0.06534296,7.54022039E-07],"rotation":[0.3848027,-0.06913668,-0.0382876545,0.9196092]},{"name":"RightShoulder","children":[51],"translation":[-0.0622234046,0.104911752,-0.012486713],"rotation":[0.481687844,-0.492770046,0.588905931,0.422308475]},{"name":"Spine2","children":[4,28,52],"translation":[4.574119E-14,0.121620968,2.328305E-08],"rotation":[0.06359204,-1.41328385E-07,-8.818999E-08,0.997976]},{"name":"Spine1","children":[53],"translation":[-2.023555E-13,0.0914743543,-5.58793545E-09],"rotation":[-0.0363568328,1.07129068E-07,9.71432854E-08,0.9993389]},{"name":"Spine","children":[54],"translation":[1.20880671E-12,0.09636317,4.09781933E-08],"rotation":[-0.0137857581,2.629595E-05,3.58557458E-07,0.999905]},{"name":"LeftToe_End","translation":[-2.49856384E-08,0.08319714,-7.741619E-09],"rotation":[0.0162599068,0.708827734,-0.02440197,0.7047719]},{"name":"LeftToeBase","children":[56],"translation":[1.77897164E-09,0.15657492,-1.64436642E-08],"rotation":[0.330708474,-0.0103022335,0.0261320174,0.94331485]},{"name":"LeftFoot","children":[57],"translation":[-8.58563E-09,0.449560553,1.62981451E-09],"rotation":[0.4950771,-0.0149624264,-0.0299044289,0.868205369]},{"name":"LeftLeg","children":[58],"translation":[3.26981535E-08,0.447508752,7.08041625E-09],"rotation":[-0.0376810022,0.000342590734,-0.000975887233,0.999289334]},{"name":"LeftUpLeg","children":[59],"translation":[0.09545623,-0.0195789877,0.00277966564],"rotation":[0.00190537551,0.0563659668,-0.9978453,0.03352741],"scale":[0.999995649,0.9999997,0.9999879]},{"name":"RightToe_End","translation":[6.513437E-08,0.0831960142,-1.565786E-08],"rotation":[0.01627301,-0.7089112,0.0244204924,0.704687]},{"name":"RightToeBase","children":[61],"translation":[3.222158E-08,0.156572163,-1.10303517E-08],"rotation":[0.330717444,0.0103977323,-0.0261217989,0.9433109]},{"name":"RightFoot","children":[62],"translation":[-2.80269887E-08,0.449559361,1.39698386E-09],"rotation":[0.495078146,0.01495706,0.0299087148,0.8682047]},{"name":"RightLeg","children":[63],"translation":[2.63171387E-08,0.447508872,1.51976565E-09],"rotation":[-0.037682306,-0.0003432776,0.0009757366,0.9992893]},{"name":"RightUpLeg","children":[64],"translation":[-0.095456,-0.0195795819,0.002789595],"rotation":[0.001961064,-0.0563644953,0.9978452,0.0335294157]},{"name":"Hips","children":[55,60,65],"translation":[-3.87824538E-14,1.03696418,0.04042893],"rotation":[-0.0299776345,-2.61398836E-05,7.83971E-07,0.9995506]},{"name":"EyeLeft","mesh":0},{"name":"EyeRight","mesh":1},{"name":"Wolf3D_Head","mesh":2},{"name":"Wolf3D_Teeth","mesh":3},{"name":"Wolf3D_Hair","mesh":4},{"name":"Wolf3D_Outfit_Top","mesh":5},{"name":"Wolf3D_Outfit_Bottom","mesh":6},{"name":"Wolf3D_Outfit_Footwear","mesh":7},{"name":"Wolf3D_Body","mesh":8},{"name":"Teen Girl","children":[66,67,68,69,70,71,72,73,74,75]}],"buffers":[{"uri":"Teen Girl.bin","byteLength":955656}],"bufferViews":[{"buffer":0,"byteLength":2472},{"buffer":0,"byteLength":2880,"byteOffset":2472,"byteStride":24},{"buffer":0,"byteLength":960,"byteOffset":5352,"byteStride":8},{"buffer":0,"byteLength":2472,"byteOffset":6312},{"buffer":0,"byteLength":49128,"byteOffset":8784},{"buffer":0,"byteLength":1200,"byteOffset":57912},{"buffer":0,"byteLength":35520,"byteOffset":59112},{"buffer":0,"byteLength":57036,"byteOffset":94632},{"buffer":0,"byteLength":59700,"byteOffset":151668},{"buffer":0,"byteLength":33504,"byteOffset":211368},{"buffer":0,"byteLength":69792,"byteOffset":244872},{"buffer":0,"byteLength":2880,"byteOffset":314664,"byteStride":24},{"buffer":0,"byteLength":960,"byteOffset":317544,"byteStride":8},{"buffer":0,"byteLength":51888,"byteOffset":318504,"byteStride":24},{"buffer":0,"byteLength":17296,"byteOffset":370392,"byteStride":8},{"buffer":0,"byteLength":2016,"byteOffset":387688,"byteStride":24},{"buffer":0,"byteLength":672,"byteOffset":389704,"byteStride":8},{"buffer":0,"byteLength":75840,"byteOffset":390376,"byteStride":40},{"buffer":0,"byteLength":15168,"byteOffset":466216,"byteStride":8},{"buffer":0,"byteLength":79440,"byteOffset":481384,"byteStride":24},{"buffer":0,"byteLength":26480,"byteOffset":560824,"byteStride":8},{"buffer":0,"byteLength":113840,"byteOffset":587304,"byteStride":40},{"buffer":0,"byteLength":22768,"byteOffset":701144,"byteStride":8},{"buffer":0,"byteLength":118400,"byteOffset":723912,"byteStride":40},{"buffer":0,"byteLength":23680,"byteOffset":842312,"byteStride":8},{"buffer":0,"byteLength":74720,"byteOffset":865992,"byteStride":40},{"buffer":0,"byteLength":14944,"byteOffset":940712,"byteStride":8}],"accessors":[{"bufferView":1,"componentType":5126,"count":120,"type":"VEC3","max":[0.05509615,1.65475833,0.122698024],"min":[0.0115711559,1.61129987,0.101041391]},{"bufferView":1,"componentType":5126,"count":120,"type":"VEC3","byteOffset":12},{"bufferView":2,"componentType":5126,"count":120,"type":"VEC2"},{"bufferView":0,"componentType":5125,"count":618,"type":"SCALAR"},{"bufferView":11,"componentType":5126,"count":120,"type":"VEC3","max":[-0.0118826739,1.654804,0.122698054],"min":[-0.0552346446,1.61125612,0.101041421]},{"bufferView":11,"componentType":5126,"count":120,"type":"VEC3","byteOffset":12},{"bufferView":12,"componentType":5126,"count":120,"type":"VEC2"},{"bufferView":3,"componentType":5125,"count":618,"type":"SCALAR"},{"bufferView":13,"componentType":5126,"count":2162,"type":"VEC3","max":[0.09210204,1.7430979,0.158215478],"min":[-0.09208945,1.4321605,-0.055863943]},{"bufferView":13,"componentType":5126,"count":2162,"type":"VEC3","byteOffset":12},{"bufferView":14,"componentType":5126,"count":2162,"type":"VEC2"},{"bufferView":4,"componentType":5125,"count":12282,"type":"SCALAR"},{"bufferView":15,"componentType":5126,"count":84,"type":"VEC3","max":[0.026923757,1.58568668,0.134657875],"min":[-0.026923757,1.55180192,0.07042013]},{"bufferView":15,"componentType":5126,"count":84,"type":"VEC3","byteOffset":12},{"bufferView":16,"componentType":5126,"count":84,"type":"VEC2"},{"bufferView":5,"componentType":5125,"count":300,"type":"SCALAR"},{"bufferView":17,"componentType":5126,"count":1896,"type":"VEC3","max":[0.192776963,1.76238775,0.150723308],"min":[-0.193590477,1.40223408,-0.08687769]},{"bufferView":17,"componentType":5126,"count":1896,"type":"VEC3","byteOffset":12},{"bufferView":17,"componentType":5126,"count":1896,"type":"VEC4","byteOffset":24},{"bufferView":18,"componentType":5126,"count":1896,"type":"VEC2"},{"bufferView":6,"componentType":5125,"count":8880,"type":"SCALAR"},{"bufferView":21,"componentType":5126,"count":2846,"type":"VEC3","max":[0.4236694,1.54811263,0.187636331],"min":[-0.4243992,0.8343103,-0.1285166]},{"bufferView":21,"componentType":5126,"count":2846,"type":"VEC3","byteOffset":12},{"bufferView":21,"componentType":5126,"count":2846,"type":"VEC4","byteOffset":24},{"bufferView":22,"componentType":5126,"count":2846,"type":"VEC2"},{"bufferView":7,"componentType":5125,"count":14259,"type":"SCALAR"},{"bufferView":23,"componentType":5126,"count":2960,"type":"VEC3","max":[0.243185416,1.10258186,0.1578735],"min":[-0.243032977,0.129551768,-0.122617379]},{"bufferView":23,"componentType":5126,"count":2960,"type":"VEC3","byteOffset":12},{"bufferView":23,"componentType":5126,"count":2960,"type":"VEC4","byteOffset":24},{"bufferView":24,"componentType":5126,"count":2960,"type":"VEC2"},{"bufferView":8,"componentType":5125,"count":14925,"type":"SCALAR"},{"bufferView":25,"componentType":5126,"count":1868,"type":"VEC3","max":[0.241932139,0.213410616,0.191123724],"min":[-0.242080763,-0.009407036,-0.117751338]},{"bufferView":25,"componentType":5126,"count":1868,"type":"VEC3","byteOffset":12},{"bufferView":25,"componentType":5126,"count":1868,"type":"VEC4","byteOffset":24},{"bufferView":26,"componentType":5126,"count":1868,"type":"VEC2"},{"bufferView":9,"componentType":5125,"count":8376,"type":"SCALAR"},{"bufferView":19,"componentType":5126,"count":3310,"type":"VEC3","max":[0.46416083,1.32710719,0.176859125],"min":[-0.464157015,0.0837221146,-0.07725234]},{"bufferView":19,"componentType":5126,"count":3310,"type":"VEC3","byteOffset":12},{"bufferView":20,"componentType":5126,"count":3310,"type":"VEC2"},{"bufferView":10,"componentType":5125,"count":17448,"type":"SCALAR"}],"materials":[{"name":"Wolf3D_Eye","pbrMetallicRoughness":{"metallicFactor":0}},{"name":"Wolf3D_Skin","pbrMetallicRoughness":{"metallicFactor":0}},{"name":"Wolf3D_Teeth","pbrMetallicRoughness":{"metallicFactor":0},"doubleSided":true},{"name":"Wolf3D_Hair","pbrMetallicRoughness":{"metallicFactor":0},"doubleSided":true},{"name":"Wolf3D_Outfit_Top","pbrMetallicRoughness":{"metallicFactor":0}},{"name":"Wolf3D_Outfit_Bottom","pbrMetallicRoughness":{"metallicFactor":0}},{"name":"Wolf3D_Outfit_Footwear","pbrMetallicRoughness":{"metallicFactor":0}},{"name":"Wolf3D_Body","pbrMetallicRoughness":{"metallicFactor":0},"doubleSided":true}],"meshes":[{"name":"EyeLeft","primitives":[{"attributes":{"POSITION":0,"NORMAL":1,"TEXCOORD_0":2},"indices":3,"material":0}]},{"name":"EyeRight","primitives":[{"attributes":{"POSITION":4,"NORMAL":5,"TEXCOORD_0":6},"indices":7,"material":0}]},{"name":"Wolf3D_Head","primitives":[{"attributes":{"POSITION":8,"NORMAL":9,"TEXCOORD_0":10},"indices":11,"material":1}]},{"name":"Wolf3D_Teeth","primitives":[{"attributes":{"POSITION":12,"NORMAL":13,"TEXCOORD_0":14},"indices":15,"material":2}]},{"name":"Wolf3D_Hair","primitives":[{"attributes":{"POSITION":16,"NORMAL":17,"TANGENT":18,"TEXCOORD_0":19},"indices":20,"material":3}]},{"name":"Wolf3D_Outfit_Top","primitives":[{"attributes":{"POSITION":21,"NORMAL":22,"TANGENT":23,"TEXCOORD_0":24},"indices":25,"material":4}]},{"name":"Wolf3D_Outfit_Bottom","primitives":[{"attributes":{"POSITION":26,"NORMAL":27,"TANGENT":28,"TEXCOORD_0":29},"indices":30,"material":5}]},{"name":"Wolf3D_Outfit_Footwear","primitives":[{"attributes":{"POSITION":31,"NORMAL":32,"TANGENT":33,"TEXCOORD_0":34},"indices":35,"material":6}]},{"name":"Wolf3D_Body","primitives":[{"attributes":{"POSITION":36,"NORMAL":37,"TEXCOORD_0":38},"indices":39,"material":7}]}],"scene":0,"scenes":[{"name":"Teen Girl","nodes":[76]}]}